<svg xmlns="http://www.w3.org/2000/svg" version="1.1" xmlns:xlink="http://www.w3.org/1999/xlink" xmlns:svgjs="http://svgjs.dev/svgjs" width="108" height="108"><svg id="SvgjsSvg1004" xmlns="http://www.w3.org/2000/svg" width="108" height="108" viewBox="0 0 108 108">
<rect fill="#FFFF80" width="108" height="108"></rect>
<g transform="translate(18, 71) scale(0.5, 0.5)">
<path fill="#000000" d="M135.8,-87.9 Q131.9,-81,127.2,-75.3 Q122.1,-69.3,116.9,-64.5 Q112,-60.1,105.5,-55.8 Q99.1,-51.4,93.3,-48.7 Q93,-49.1,90.9,-52.6 Q89.6,-54.6,88,-56.5 Q94.9,-59.2,99.9,-62.4 Q105.4,-65.8,110.7,-70.5 Q115.8,-74.9,120.1,-80.1 Q124.1,-85.1,127.7,-91.3 L135.8,-87.9"></path>
<path fill="#000000" d="M124.3,-19 Q123.7,-17,122,-11.1 Q120.8,-7.5,119.1,-2.6 Q117.2,2.3,115.9,5.6 Q114.9,8.1,113.2,12.1 L104.1,9.8 Q106.6,4,108.1,-0.1 Q111.3,-8.2,112.3,-12 L65.7,-12 L65.7,-20.9 L114.3,-20.9 L116.2,-21.3 L124.3,-19"></path>
<path fill="#000000" d="M43.5,-28.4 Q44.5,-26.4,47,-21.6 Q49.5,-16.8,50.8,-14.1 Q51.7,-12.4,54.4,-7.1 Q57,-1.9,58.5,1 Q59.3,2.6,61.8,7.8 Q64.4,13.1,65.7,15.7 Q69.5,24,71.1,27.8 L61.1,31.3 Q58.3,23.9,56.2,19 Q55.2,16.7,52.8,11.7 Q50.5,6.8,49.4,4.3 Q46.5,-2.2,41.9,-11.4 Q40.6,-14.1,38.2,-18.9 Q35.9,-23.6,34.7,-25.9 L43.5,-28.4"></path>
<path fill="#000000" d="M75.6,-98 L75.6,-35.5 L66,-35.5 L66,-98 L75.6,-98"></path>
<path fill="#000000" d="M49.7,-52.2 L49.7,-44.1 L0,-44.1 L0,-52.2 L49.7,-52.2"></path>
</g>
</svg><style>@media (prefers-color-scheme: light) { :root { filter: none; } }
@media (prefers-color-scheme: dark) { :root { filter: none; } }
</style></svg>